# Blender 3.3.15
# www.blender.org
mtllib coin.mtl
o Cylinder
v 0.000000 0.999183 -0.155351
v 0.000000 1.000789 0.144644
v 0.195090 0.979968 -0.155249
v 0.195090 0.981574 0.144747
v 0.382683 0.923064 -0.154944
v 0.382683 0.924670 0.145052
v 0.555570 0.830655 -0.154449
v 0.555570 0.832261 0.145547
v 0.707107 0.706294 -0.153783
v 0.707107 0.707900 0.146212
v 0.831470 0.554759 -0.152972
v 0.831470 0.556365 0.147024
v 0.923880 0.381875 -0.152047
v 0.923880 0.383481 0.147949
v 0.980785 0.194284 -0.151042
v 0.980785 0.195890 0.148953
v 1.000000 -0.000803 -0.149998
v 1.000000 0.000803 0.149998
v 0.980785 -0.195890 -0.148953
v 0.980785 -0.194284 0.151042
v 0.923880 -0.383481 -0.147949
v 0.923880 -0.381875 0.152047
v 0.831470 -0.556365 -0.147024
v 0.831470 -0.554759 0.152972
v 0.707107 -0.707900 -0.146212
v 0.707107 -0.706294 0.153783
v 0.555570 -0.832261 -0.145547
v 0.555570 -0.830655 0.154449
v 0.382683 -0.924670 -0.145052
v 0.382683 -0.923064 0.154944
v 0.195090 -0.981574 -0.144747
v 0.195090 -0.979968 0.155249
v 0.000000 -1.000789 -0.144644
v 0.000000 -0.999183 0.155351
v -0.195091 -0.981574 -0.144747
v -0.195091 -0.979968 0.155249
v -0.382684 -0.924669 -0.145052
v -0.382684 -0.923063 0.154944
v -0.555571 -0.832260 -0.145547
v -0.555571 -0.830654 0.154449
v -0.707107 -0.707899 -0.146212
v -0.707107 -0.706293 0.153783
v -0.831470 -0.556365 -0.147024
v -0.831470 -0.554759 0.152972
v -0.923880 -0.383481 -0.147949
v -0.923880 -0.381875 0.152047
v -0.980785 -0.195889 -0.148953
v -0.980785 -0.194283 0.151042
v -1.000000 -0.000802 -0.149998
v -1.000000 0.000804 0.149998
v -0.980785 0.194285 -0.151042
v -0.980785 0.195891 0.148953
v -0.923879 0.381875 -0.152047
v -0.923879 0.383482 0.147949
v -0.831469 0.554760 -0.152972
v -0.831469 0.556366 0.147024
v -0.707106 0.706295 -0.153783
v -0.707106 0.707901 0.146212
v -0.555569 0.830655 -0.154449
v -0.555569 0.832261 0.145547
v -0.382682 0.923064 -0.154944
v -0.382682 0.924670 0.145052
v -0.195089 0.979969 -0.155249
v -0.195089 0.981575 0.144747
vn -0.0000 0.0054 1.0000
vn -0.0000 -0.0054 -1.0000
vn 0.0980 0.9952 -0.0053
vn 0.2903 0.9569 -0.0051
vn 0.4714 0.8819 -0.0047
vn 0.6344 0.7730 -0.0041
vn 0.7730 0.6344 -0.0034
vn 0.8819 0.4714 -0.0025
vn 0.9569 0.2903 -0.0016
vn 0.9952 0.0980 -0.0005
vn 0.9952 -0.0980 0.0005
vn 0.9569 -0.2903 0.0016
vn 0.8819 -0.4714 0.0025
vn 0.7730 -0.6344 0.0034
vn 0.6344 -0.7730 0.0041
vn 0.4714 -0.8819 0.0047
vn 0.2903 -0.9569 0.0051
vn 0.0980 -0.9952 0.0053
vn -0.0980 -0.9952 0.0053
vn -0.2903 -0.9569 0.0051
vn -0.4714 -0.8819 0.0047
vn -0.6344 -0.7730 0.0041
vn -0.7730 -0.6344 0.0034
vn -0.8819 -0.4714 0.0025
vn -0.9569 -0.2903 0.0016
vn -0.9952 -0.0980 0.0005
vn -0.9952 0.0980 -0.0005
vn -0.9569 0.2903 -0.0016
vn -0.8819 0.4714 -0.0025
vn -0.7730 0.6344 -0.0034
vn -0.6344 0.7730 -0.0041
vn -0.4714 0.8819 -0.0047
vn -0.0980 0.9952 -0.0053
vn -0.2903 0.9569 -0.0051
vt 0.754791 0.993160
vt 0.460948 -0.870217
vt 0.246704 0.989829
vt 0.518503 -0.870217
vt 0.708953 0.983792
vt 0.460948 -0.801698
vt 0.293322 0.980439
vt 0.518503 -0.801697
vt 0.664877 0.956048
vt 0.460948 -0.733179
vt 0.338148 0.952629
vt 0.518503 -0.733178
vt 0.624255 0.910995
vt 0.460948 -0.664660
vt 0.379461 0.907467
vt 0.518503 -0.664659
vt 0.588650 0.850363
vt 0.460948 -0.596141
vt 0.415671 0.846690
vt 0.518503 -0.596140
vt 0.559430 0.776482
vt 0.460948 -0.527621
vt 0.445388 0.772632
vt 0.518503 -0.527621
vt 0.537717 0.692193
vt 0.460948 -0.459102
vt 0.467470 0.688141
vt 0.518503 -0.459102
vt 0.524347 0.600733
vt 0.460948 -0.390583
vt 0.481068 0.596463
vt 0.518503 -0.390583
vt 0.519832 0.505618
vt 0.460948 -0.322064
vt 0.485659 0.501120
vt 0.518503 -0.322064
vt 0.524347 0.410503
vt 0.460948 -0.253545
vt 0.481068 0.405777
vt 0.518504 -0.253545
vt 0.537717 0.319043
vt 0.460948 -0.185026
vt 0.467470 0.314099
vt 0.518504 -0.185026
vt 0.559430 0.234754
vt 0.460948 -0.116507
vt 0.460948 -0.136656
vt 0.445388 0.229607
vt 0.518504 -0.116507
vt 0.518504 -0.136656
vt 0.588650 0.160873
vt 0.460948 -0.024296
vt 0.415671 0.155550
vt 0.518504 -0.024296
vt 0.624255 0.100241
vt 0.460948 0.088063
vt 0.379461 0.094773
vt 0.518504 0.088063
vt 0.664876 0.055187
vt 0.460948 0.216253
vt 0.338148 0.049611
vt 0.518504 0.216253
vt 0.708953 0.027443
vt 0.460948 0.355347
vt 0.293322 0.021801
vt 0.518504 0.355347
vt 0.754791 0.018075
vt 0.460948 0.500000
vt 0.246704 0.012410
vt 0.518504 0.500000
vt 0.800629 0.027442
vt 0.460948 0.644653
vt 0.200086 0.021801
vt 0.518504 0.644653
vt 0.844706 0.055187
vt 0.460948 0.783747
vt 0.155260 0.049611
vt 0.518504 0.783747
vt 0.885327 0.100240
vt 0.460949 0.911937
vt 0.113948 0.094773
vt 0.518504 0.911937
vt 0.920932 0.160872
vt 0.460949 1.024296
vt 0.077737 0.155550
vt 0.518504 1.024296
vt 0.950153 0.234753
vt 0.460949 1.116508
vt 0.048020 0.229608
vt 0.518504 1.116507
vt 0.971865 0.319043
vt 0.460949 1.185026
vt 0.025938 0.314099
vt 0.518504 1.185026
vt 0.985236 0.410502
vt 0.460949 1.227220
vt 0.460948 -1.486889
vt 0.012341 0.405778
vt 0.518504 1.227220
vt 0.518502 -1.486888
vt 0.989750 0.505617
vt 0.460948 -1.418369
vt 0.007749 0.501120
vt 0.518503 -1.418369
vt 0.985236 0.600732
vt 0.460948 -1.349850
vt 0.012341 0.596463
vt 0.518503 -1.349850
vt 0.971865 0.692192
vt 0.460948 -1.281331
vt 0.025939 0.688141
vt 0.518503 -1.281331
vt 0.950153 0.776482
vt 0.460948 -1.212812
vt 0.048020 0.772633
vt 0.518503 -1.212811
vt 0.920932 0.850362
vt 0.460948 -1.144293
vt 0.077738 0.846690
vt 0.518503 -1.144292
vt 0.885327 0.910994
vt 0.460948 -1.075774
vt 0.113948 0.907467
vt 0.518503 -1.075773
vt 0.844706 0.956048
vt 0.460948 -1.007255
vt 0.155260 0.952629
vt 0.518503 -1.007254
vt 0.800629 0.983792
vt 0.460948 -0.938736
vt 0.200087 0.980439
vt 0.518503 -0.938735
s 0
usemtl 
f 4/7/1 2/3/1 64/131/1 62/127/1 60/123/1 58/119/1 56/115/1 54/111/1 52/107/1 50/103/1 48/98/1 46/93/1 44/89/1 42/85/1 40/81/1 38/77/1 36/73/1 34/69/1 32/65/1 30/61/1 28/57/1 26/53/1 24/48/1 22/43/1 20/39/1 18/35/1 16/31/1 14/27/1 12/23/1 10/19/1 8/15/1 6/11/1
f 1/1/2 3/5/2 5/9/2 7/13/2 9/17/2 11/21/2 13/25/2 15/29/2 17/33/2 19/37/2 21/41/2 23/45/2 25/51/2 27/55/2 29/59/2 31/63/2 33/67/2 35/71/2 37/75/2 39/79/2 41/83/2 43/87/2 45/91/2 47/95/2 49/101/2 51/105/2 53/109/2 55/113/2 57/117/2 59/121/2 61/125/2 63/129/2
usemtl 
f 1/2/3 2/4/3 4/8/3 3/6/3
f 3/6/4 4/8/4 6/12/4 5/10/4
f 5/10/5 6/12/5 8/16/5 7/14/5
f 7/14/6 8/16/6 10/20/6 9/18/6
f 9/18/7 10/20/7 12/24/7 11/22/7
f 11/22/8 12/24/8 14/28/8 13/26/8
f 13/26/9 14/28/9 16/32/9 15/30/9
f 15/30/10 16/32/10 18/36/10 17/34/10
f 17/34/11 18/36/11 20/40/11 19/38/11
f 19/38/12 20/40/12 22/44/12 21/42/12
f 21/42/13 22/44/13 24/49/13 23/46/13
f 23/47/14 24/50/14 26/54/14 25/52/14
f 25/52/15 26/54/15 28/58/15 27/56/15
f 27/56/16 28/58/16 30/62/16 29/60/16
f 29/60/17 30/62/17 32/66/17 31/64/17
f 31/64/18 32/66/18 34/70/18 33/68/18
f 33/68/19 34/70/19 36/74/19 35/72/19
f 35/72/20 36/74/20 38/78/20 37/76/20
f 37/76/21 38/78/21 40/82/21 39/80/21
f 39/80/22 40/82/22 42/86/22 41/84/22
f 41/84/23 42/86/23 44/90/23 43/88/23
f 43/88/24 44/90/24 46/94/24 45/92/24
f 45/92/25 46/94/25 48/99/25 47/96/25
f 47/97/26 48/100/26 50/104/26 49/102/26
f 49/102/27 50/104/27 52/108/27 51/106/27
f 51/106/28 52/108/28 54/112/28 53/110/28
f 53/110/29 54/112/29 56/116/29 55/114/29
f 55/114/30 56/116/30 58/120/30 57/118/30
f 57/118/31 58/120/31 60/124/31 59/122/31
f 59/122/32 60/124/32 62/128/32 61/126/32
f 63/130/33 64/132/33 2/4/33 1/2/33
f 61/126/34 62/128/34 64/132/34 63/130/34
